<?xml version="1.0" encoding="UTF-8"?>
<svg enable-background="new 0 0 32 24.3" version="1.1" viewBox="0 0 32 24.3" xml:space="preserve" xmlns="http://www.w3.org/2000/svg">
    <path d="m31.6 19.2h-1v-5.6c0-0.7-0.2-1.3-0.6-1.8l-2.5-3.8c-0.6-0.9-1.6-1.4-2.7-1.4h-3.9c-0.5 0-0.8 0.4-0.8 0.8v11.8h-6.4c0.6 0.5 1 1.3 1.1 2.1h6.7c0.2-1.6 1.6-2.9 3.3-2.9s3.1 1.3 3.3 2.9h3.3c0.2 0 0.4-0.2 0.4-0.4v-1.3c0.2-0.3 0-0.4-0.2-0.4zm-4.1-6.7h-5.1c-0.2 0-0.4-0.2-0.4-0.4v-2.9c0-0.2 0.2-0.4 0.4-0.4h3.1c0.1 0 0.3 0.1 0.3 0.2l2 2.8c0.2 0.3 0 0.7-0.3 0.7zm-2.6 6.7c-1.4 0-2.6 1.1-2.6 2.6 0 1.4 1.1 2.6 2.6 2.6 1.4 0 2.6-1.1 2.6-2.6s-1.2-2.6-2.6-2.6zm0 3.8c-0.7 0-1.3-0.6-1.3-1.3s0.6-1.3 1.3-1.3 1.3 0.6 1.3 1.3-0.6 1.3-1.3 1.3zm-21.3-3.8c-0.2 0-0.4 0.2-0.4 0.4v1.3c0 0.2 0.2 0.4 0.4 0.4h4.6c0.1-0.8 0.5-1.6 1.1-2.1h-5.7zm7.9 0c-1.4 0-2.6 1.1-2.6 2.6 0 1.4 1.1 2.6 2.6 2.6 1.4 0 2.6-1.1 2.6-2.6s-1.2-2.6-2.6-2.6zm0 3.8c-0.7 0-1.3-0.6-1.3-1.3s0.6-1.3 1.3-1.3 1.3 0.6 1.3 1.3-0.6 1.3-1.3 1.3zm6.2-19h-4.8c0.2 0.7 0.4 1.4 0.4 2.2 0 3.9-3.2 7-7 7-0.7 0-1.4-0.1-2-0.3v4.5c0 0.2 0.2 0.4 0.4 0.4h13.9c0.2 0 0.4-0.2 0.4-0.4v-12.2c-0.1-0.6-0.6-1.2-1.3-1.2zm-11.5-4c-3.4 0-6.2 2.8-6.2 6.2s2.8 6.2 6.2 6.2 6.2-2.8 6.2-6.2-2.7-6.2-6.2-6.2zm0 11c-2.7 0-4.8-2.2-4.8-4.8s2.2-4.8 4.8-4.8c2.7 0 4.8 2.2 4.8 4.8 0 2.7-2.1 4.8-4.8 4.8zm1.9-3.8h-0.2l-2-0.5c-0.3-0.1-0.5-0.3-0.5-0.6v-3.1c0-0.3 0.3-0.6 0.6-0.6s0.7 0.3 0.7 0.6v2.6l1.5 0.4c0.3 0.1 0.5 0.4 0.4 0.8 0 0.3-0.3 0.4-0.5 0.4z"/>
</svg>
